# xmcd
#
# Track frame offsets: 
#        150
#        15169
#        36484
#        57746
#        69148
#        87111
#        95362
#        114466
#        127616
#        161657
#
# Disc length: 2448 seconds
#
# Revision: 5
# Processed by: cddbd v1.5.2PL0 Copyright (c) Steve Scherf et al.
# Submitted via: ExactAudioCopyFreeDBPlugin 1.0
#
DISCID=72098e0a
DTITLE=Jeff Beck - Truth
DYEAR=1969
DGENRE=Rock
TTITLE0=Shapes Of Things
TTITLE1=Let Me Love You
TTITLE2=Morning Dew
TTITLE3=You Shook Me
TTITLE4=Ol' Man River
TTITLE5=Greensleeves
TTITLE6=Rock My Plimsoul
TTITLE7=Beck's Bolero
TTITLE8=Blues De Luxe
TTITLE9=I Ain't Superstitious
EXTD=Guitar:  Jeff Beck\nVocals:  Rod Stewart\nBass:  Ron Wood\nDrums:
EXTD=Mick Waller\n\nJeff Beck, Bass, on "Ol' Man River"\nJ.P. Jones, 
EXTD=Hammond Organ, on "Ol' Man River"\nTimpani by "You Know Who"\nNic
EXTD=ky Hopkins, Piano, on "Morning Dew"\nand "Blues De Luxe"\n\nProdu
EXTD=ced by Mickey Most\n\nEp YEAR: 1969
EXTT0=
EXTT1=
EXTT2=
EXTT3=
EXTT4=
EXTT5=
EXTT6=
EXTT7=
EXTT8=
EXTT9=
PLAYORDER=
